<?xml version="1.0" standalone="no"?>
<!DOCTYPE svg PUBLIC "-//W3C//DTD SVG 20010904//EN"
 "http://www.w3.org/TR/2001/REC-SVG-20010904/DTD/svg10.dtd">
<svg version="1.0" xmlns="http://www.w3.org/2000/svg"
 width="512.000000pt" height="512.000000pt" viewBox="0 0 512.000000 512.000000"
 preserveAspectRatio="xMidYMid meet">

<g transform="translate(0.000000,512.000000) scale(0.100000,-0.100000)"
fill="#000000" stroke="none">
<path d="M1225 3868 c-2 -7 -115 -310 -251 -673 -136 -363 -249 -668 -252
-677 -4 -17 8 -18 156 -18 l161 0 29 78 c17 42 65 172 107 287 80 215 98 254
89 194 -5 -41 -34 -479 -34 -526 l0 -33 170 0 c151 0 170 2 179 18 5 9 120
314 256 676 136 363 249 665 252 673 4 11 -23 13 -158 11 l-164 -3 -110 -294
c-85 -227 -111 -286 -112 -260 -2 19 5 150 15 292 9 142 15 260 13 263 -2 2
-80 4 -173 4 -126 0 -170 -3 -173 -12z m315 -40 c0 -13 -7 -141 -16 -284 -9
-144 -14 -269 -11 -279 4 -10 15 -15 29 -13 19 3 37 43 132 300 l111 298 133
0 132 0 -13 -32 c-7 -18 -119 -315 -248 -660 l-234 -628 -148 0 -149 0 7 108
c4 59 13 190 20 292 8 101 11 188 9 192 -8 12 -40 9 -51 -4 -6 -7 -52 -125
-103 -263 -51 -137 -99 -267 -107 -287 l-15 -38 -129 0 c-71 0 -129 2 -129 4
0 3 464 1244 485 1299 6 15 23 17 151 17 143 0 144 0 144 -22z"/>
<path d="M2127 3866 c-50 -131 -501 -1336 -505 -1349 -4 -16 6 -17 158 -15
l162 3 249 665 c138 366 252 675 255 688 l6 22 -160 0 c-127 0 -161 -3 -165
-14z m283 -23 c-1 -5 -110 -300 -244 -658 l-244 -650 -132 -3 c-104 -2 -131 0
-128 10 3 7 114 304 248 661 l243 647 128 0 c71 0 129 -3 129 -7z"/>
<path d="M2499 3853 c-16 -43 -163 -437 -319 -858 -77 -209 -149 -402 -160
-429 -11 -27 -20 -53 -20 -58 0 -5 72 -7 161 -6 l162 3 106 279 c97 256 106
276 109 235 2 -24 6 -150 10 -279 l7 -235 217 0 c119 0 214 -3 210 -6 -4 -3
-104 -32 -222 -63 -244 -66 -734 -199 -1170 -317 -162 -45 -328 -87 -368 -95
-257 -49 -502 38 -609 217 -94 157 -81 416 32 657 19 39 32 72 30 72 -3 0 -49
-56 -103 -123 -175 -219 -296 -404 -393 -597 -205 -411 -194 -693 34 -866 213
-161 471 -186 817 -78 199 62 376 137 2255 951 248 107 704 305 1015 440 832
361 794 343 776 360 -3 4 -198 -46 -433 -110 -236 -64 -562 -153 -727 -197
-164 -45 -300 -79 -302 -77 -2 2 3 23 11 47 8 23 15 44 15 46 0 2 -83 4 -185
4 -102 0 -185 3 -185 8 0 4 26 77 59 162 l58 155 158 5 157 5 44 115 c23 63
43 121 43 128 1 9 -35 12 -149 12 -82 0 -150 2 -150 5 0 3 23 68 51 145 l52
140 165 2 165 3 38 99 c22 55 39 106 39 113 0 10 -94 13 -489 13 l-489 0 -139
-167 c-76 -93 -150 -183 -163 -200 -13 -18 -25 -31 -28 -29 -2 3 28 87 67 188
39 101 71 189 71 196 0 9 -42 12 -160 12 l-160 0 -11 -27z m291 -11 c0 -4 -30
-84 -66 -177 -36 -94 -68 -180 -71 -191 -6 -25 9 -38 35 -30 9 3 91 96 182
206 l164 200 133 0 c73 0 133 -2 133 -4 0 -2 -106 -120 -236 -262 l-236 -259
7 -325 c7 -343 10 -393 20 -410 11 -18 45 -11 55 13 5 12 112 298 237 634
l228 613 293 0 c160 0 292 -3 292 -8 0 -4 -13 -41 -29 -82 l-28 -75 -144 -2
c-79 -2 -154 -5 -166 -8 -21 -5 -57 -84 -119 -261 -29 -83 -27 -84 136 -84 77
0 140 -3 140 -7 0 -5 -16 -48 -34 -98 l-35 -90 -149 -3 c-127 -2 -152 -5 -164
-20 -21 -25 -130 -327 -126 -349 3 -17 17 -18 179 -21 l176 -2 -11 -40 c-7
-30 -7 -43 2 -52 15 -15 -25 -24 702 173 299 81 546 147 547 145 2 -1 -252
-113 -564 -249 -1099 -476 -1359 -589 -1458 -632 -55 -24 -284 -123 -510 -220
-583 -252 -921 -395 -1065 -453 -410 -163 -670 -184 -895 -73 -133 66 -217
148 -254 246 -93 247 48 634 406 1118 36 48 67 86 68 85 2 -2 -8 -43 -21 -93
-43 -167 -29 -331 38 -456 102 -193 372 -296 640 -245 62 12 354 89 778 206
325 89 963 261 996 268 40 8 56 34 36 54 -7 7 -91 10 -230 9 l-219 -2 -7 278
c-4 153 -11 282 -16 287 -16 16 -41 -4 -61 -48 -10 -24 -59 -149 -107 -278
l-89 -233 -133 -3 c-123 -2 -132 -1 -125 15 4 10 48 131 99 268 106 285 364
979 377 1013 8 21 13 22 139 22 71 0 130 -3 130 -8z m321 -617 c-124 -333
-229 -605 -232 -605 -4 0 -7 10 -6 23 0 12 -3 168 -7 347 l-7 325 233 257
c128 141 236 257 239 257 3 1 -96 -271 -220 -604z"/>
</g>
</svg>
